# xmcd
#
# Track frame offsets: 
#        150
#        23205
#        39075
#        57582
#        97176
#        115554
#        134371
#        158334
#        178299
#        200662
#        215448
#        246432
#        264237
#        280237
#        302776
#        321741
#        341177
#
# Disc length: 4785 seconds
#
# Revision: 0
# Processed by: cddbd v1.5.2PL0 Copyright (c) Steve Scherf et al.
# Submitted via: ExactAudioCopy v0.95a5
#
DISCID=0412af11
DTITLE=Various Artist - Blues-Rock Now!!!  Box1  CD2
DYEAR=2007
DGENRE=Rock
TTITLE0=Backstreet Cabaret - DANNY JOHNSON
TTITLE1=Temple Trippin' - BLINDSTONE
TTITLE2=Keep On Dancin' - GILES
TTITLE3=So Many Roads - BIG GEORGE and The BUSINESS
TTITLE4=Mumbo Jumo - BUDDAH HEADS
TTITLE5=Midnight Blues - WILD T. and The SPIRIT
TTITLE6=So Far Away - BLOODLINE
TTITLE7=Who's Been Talkin' - MIKE ONESKO BLUES BAND
TTITLE8=High Road - GLENN HUGHES
TTITLE9=Blues Out Of Hell - ROB ORLEMANS and Half Past Midnight
TTITLE10=Brand New Angel - GOV'T MULE
TTITLE11=Round and Round - TONY C. and The TRUTH
TTITLE12=Sheila - APRIL WINE
TTITLE13=Ride The Wave - GRADY CAIN
TTITLE14=Days Are Nights - TED NUGENT and CARMINE APPICE
TTITLE15=I Believe In Love - SOUTHERN GENTLEMEN
TTITLE16=Hendrix Jam - DANNY BRYANT
EXTD=
EXTT0=
EXTT1=
EXTT2=
EXTT3=
EXTT4=
EXTT5=
EXTT6=
EXTT7=
EXTT8=
EXTT9=
EXTT10=
EXTT11=
EXTT12=
EXTT13=
EXTT14=
EXTT15=
EXTT16=
PLAYORDER=
